<svg xmlns="http://www.w3.org/2000/svg" xmlns:xlink="http://www.w3.org/1999/xlink" width="256" height="256" fill="none" viewBox="0 0 256 256">
  <rect width="256" height="256" rx="60" fill="#242938"/>
  <g transform="translate(62, 40) scale(0.6875)">
    <defs>
      <linearGradient id="wsl-g13" x1="20.89856" y1="28.70122" x2="160.51789" y2="270.52899" gradientUnits="userSpaceOnUse">
        <stop offset="0" stop-color="#0078d3"/>
        <stop offset="1" stop-color="#0c5aa5"/>
      </linearGradient>
      <radialGradient id="wsl-g25" cx="96.61321" cy="162.92136" fx="96.61321" fy="162.92136" r="40.58323" gradientTransform="translate(-28.32862 259.53456) rotate(-90) scale(1 .76688)" gradientUnits="userSpaceOnUse">
        <stop offset="0" stop-color="#c86508"/>
        <stop offset="1" stop-color="#bf6009"/>
      </radialGradient>
      <radialGradient id="wsl-g20" cx="96.5" cy="154.76035" fx="96.5" fy="154.76035" r="40.36821" gradientTransform="translate(-2.6625 251.26035) rotate(-90) scale(1 .64075)" gradientUnits="userSpaceOnUse">
        <stop offset="0" stop-color="#ef8506"/>
        <stop offset="1" stop-color="#ed7e03"/>
      </radialGradient>
      <radialGradient id="wsl-g37" cx="96.95112" cy="129.9307" fx="96.95112" fy="129.9307" r="103.07409" gradientTransform="translate(-11.25307 226.88182) rotate(-90) scale(1 .83279)" gradientUnits="userSpaceOnUse">
        <stop offset=".0784" stop-color="#ffc700"/>
        <stop offset="1" stop-color="#ffc700"/>
      </radialGradient>
    </defs>

    <!-- Blue body -->
    <path fill="url(#wsl-g13)" d="M96.49981,0h.00019C149.7598,0,193,43.2402,193,96.5v149.5c0,5.51915-4.48085,10-10,10H10C4.48085,256,0,251.51915,0,246V96.49981C0,43.24011,43.24011,0,96.49981,0Z"/>
    <!-- White ears/body shapes -->
    <circle fill="#fff" cx="56.5" cy="87.11" r="32"/>
    <circle fill="#fff" cx="136.5" cy="87.11" r="32"/>
    <path fill="#fff" d="M88.5,87.11H24.5v80.77687c0,35.23677,28.56505,63.80182,63.80182,63.80182h.19818V87.11Z"/>
    <path fill="#fff" d="M104.5,87.11h64v80.77687c0,35.23677-28.56505,63.80182-63.80182,63.80182h-.19818V87.11Z"/>
    <rect fill="#fff" x="75.96226" y="178.00943" width="40.75472" height="48.45283"/>
    <!-- Dark eye circles -->
    <circle fill="#1a1a2e" cx="56.5" cy="96.10999" r="16.3019" transform="translate(-47.41926 136.48533) rotate(-80.78253)"/>
    <circle fill="#1a1a2e" cx="136.5" cy="96.11" r="16.30189"/>
    <!-- Orange belly (no drop shadow at this scale) -->
    <circle fill="url(#wsl-g25)" cx="96.5" cy="151.91" r="32"/>
    <!-- Lighter orange highlight -->
    <path fill="url(#wsl-g20)" d="M64.5,149.48114c0-14.94339,13.16492-29.21021,32-29.37115,19.08282-.16306,32,16.88058,32,29.37115,0,0-11.54718,7.62885-32,7.62885s-32-7.62885-32-7.62885Z"/>
    <!-- Yellow shimmer at bottom -->
    <path fill="url(#wsl-g37)" d="M24.5,160.25473c0,19.28659-2.59474,71.85527,71.95556,71.85527s72.04444-50.83755,72.04444-72.35057c0,0-14.9004,53.93208-72.04444,53.93208s-71.95556-53.43678-71.95556-53.43678Z"/>
  </g>
</svg>
